<?xml version="1.0" standalone="no"?>
<!DOCTYPE svg PUBLIC "-//W3C//DTD SVG 20010904//EN"
 "http://www.w3.org/TR/2001/REC-SVG-20010904/DTD/svg10.dtd">
<svg version="1.0" xmlns="http://www.w3.org/2000/svg"
 width="7200.000000pt" height="7200.000000pt" viewBox="0 0 7200.000000 7200.000000"
 preserveAspectRatio="xMidYMid meet">
<metadata>
Created by potrace 1.14, written by Peter Selinger 2001-2017
</metadata>
<g transform="translate(0.000000,7200.000000) scale(0.100000,-0.100000)"
fill="#000000" stroke="none">
<path d="M35890 48513 c-58 -19 -179 -59 -270 -88 -91 -30 -374 -122 -630
-205 -256 -83 -535 -174 -620 -201 -85 -28 -252 -82 -370 -121 -118 -38 -303
-98 -410 -133 -256 -83 -1262 -409 -1320 -428 -25 -8 -200 -65 -390 -127 -190
-61 -448 -145 -575 -187 -126 -41 -251 -81 -276 -89 -25 -8 -53 -20 -61 -27
-9 -7 -116 -185 -238 -397 -211 -364 -322 -556 -455 -785 -32 -55 -97 -167
-145 -250 -48 -82 -161 -278 -252 -435 -91 -157 -240 -435 -332 -618 l-166
-332 -73 53 c-39 30 -124 92 -187 139 -63 46 -158 116 -210 154 -824 610 -820
607 -895 620 -38 7 -185 31 -325 53 -140 23 -352 56 -470 75 -118 19 -318 51
-445 71 -291 46 -269 45 -271 15 0 -14 -4 -140 -8 -280 -4 -140 -9 -282 -11
-315 -2 -33 -6 -161 -10 -285 -3 -124 -8 -263 -10 -310 -2 -47 -7 -175 -10
-285 -3 -110 -7 -247 -10 -305 -2 -58 -7 -193 -10 -300 -3 -107 -7 -242 -10
-300 -3 -58 -7 -190 -10 -295 -3 -104 -8 -237 -10 -295 -3 -58 -7 -195 -10
-305 -3 -110 -8 -247 -10 -305 -2 -58 -7 -184 -10 -280 -3 -96 -7 -231 -10
-300 -3 -69 -7 -206 -10 -305 -3 -99 -8 -236 -10 -305 -3 -69 -7 -201 -11
-295 l-6 -170 146 -505 c81 -278 195 -671 253 -875 l107 -370 100 -114 c56
-62 110 -123 121 -136 11 -12 52 -57 90 -101 39 -43 91 -101 116 -129 49 -54
118 -131 134 -149 6 -7 20 -23 32 -36 23 -26 35 -73 358 -1355 378 -1499 457
-1810 464 -1815 10 -7 487 -417 531 -456 19 -17 73 -64 120 -104 47 -39 96
-82 110 -94 14 -12 200 -172 415 -356 428 -367 443 -380 459 -395 6 -6 171
-147 366 -315 195 -167 360 -309 366 -315 6 -5 81 -70 167 -143 l156 -134 62
-116 c34 -64 81 -153 104 -197 23 -44 86 -163 140 -265 54 -102 117 -221 140
-265 23 -44 65 -123 92 -175 105 -198 237 -448 273 -515 21 -38 178 -338 350
-665 172 -327 318 -600 324 -607 6 -7 119 -44 251 -83 132 -39 276 -81 320
-95 44 -13 249 -73 455 -134 1122 -328 2311 -677 2421 -711 l127 -38 1153 339
c635 186 1237 363 1339 394 164 48 702 206 972 285 53 15 101 31 107 34 5 4
44 73 87 154 42 81 89 170 104 197 15 28 62 118 105 200 43 83 81 155 85 160
4 6 49 91 100 190 51 99 96 185 100 190 4 6 40 73 80 150 40 77 110 210 155
295 45 85 108 205 140 265 59 113 86 163 222 420 44 83 133 250 197 372 l117
221 376 324 c207 177 392 337 412 353 33 28 95 82 166 144 17 14 59 51 95 81
57 49 109 94 144 125 6 6 40 35 76 65 36 30 67 57 70 60 3 3 210 181 460 395
250 214 465 399 477 410 12 11 110 94 217 185 107 91 199 176 205 190 6 14 85
322 176 685 167 665 332 1317 516 2045 57 225 108 403 117 415 9 10 34 37 54
60 20 22 45 49 55 61 10 11 124 139 253 283 l234 262 253 872 253 872 -5 185
c-3 102 -8 232 -10 290 -2 58 -7 195 -10 305 -3 110 -8 245 -10 300 -3 55 -7
186 -10 290 -3 105 -7 237 -10 295 -3 58 -7 195 -10 305 -3 110 -7 243 -10
295 -2 52 -7 190 -10 305 -3 116 -8 248 -10 295 -2 47 -7 182 -10 300 -3 118
-8 253 -10 300 -2 47 -7 180 -10 295 -3 116 -8 253 -10 305 -2 52 -7 187 -10
300 -4 113 -8 239 -10 280 -2 41 -6 188 -10 325 -7 296 -9 307 -38 300 -12 -3
-107 -19 -212 -35 -104 -17 -230 -37 -280 -45 -289 -47 -1036 -165 -1044 -165
-4 0 -53 -33 -107 -73 -55 -41 -306 -226 -559 -412 -253 -186 -502 -369 -552
-407 l-93 -68 -166 332 c-151 303 -235 452 -712 1273 -57 99 -116 200 -130
225 -14 25 -42 72 -62 105 -20 34 -39 68 -43 75 -3 8 -111 194 -239 414 l-233
399 -70 22 c-234 77 -874 285 -1005 327 -85 27 -263 85 -395 128 -132 43 -323
105 -425 138 -102 33 -365 119 -585 190 -220 72 -566 184 -770 250 -203 66
-557 181 -785 255 -533 174 -976 317 -995 322 -5 2 -57 -13 -115 -32z"/>
<path d="M18567 26764 c-1 -1 -21 -4 -45 -8 -74 -10 -124 -27 -203 -67 -146
-76 -267 -215 -325 -375 l-29 -79 -3 -1390 -3 -1391 328 1 328 0 1 545 c1 300
2 547 3 550 1 4 1740 5 1762 1 3 -1 5 -241 4 -533 0 -293 1 -540 3 -548 3 -13
44 -15 325 -14 177 1 324 2 327 3 8 2 4 2690 -4 2736 -26 159 -95 285 -215
397 -71 66 -177 126 -261 148 -25 7 -54 15 -65 17 -18 5 -1922 12 -1928 7z
m1776 -663 c13 -5 28 -18 32 -28 13 -28 13 -883 1 -884 -6 0 -402 -1 -879 -1
-609 -1 -871 2 -875 9 -4 6 -7 203 -7 438 l1 428 28 23 27 24 824 0 c479 0
834 -4 848 -9z"/>
<path d="M21574 25113 l0 -1653 50 -1 c28 0 162 -1 298 -2 l248 -2 1 30 c0 17
1 282 2 589 l2 559 975 2 c536 1 993 5 1015 10 249 52 459 277 492 527 5 35 8
289 7 564 -2 551 -2 557 -67 682 -75 144 -226 273 -374 317 -25 8 -71 17 -102
21 -31 4 -617 8 -1302 8 l-1245 1 0 -1652z m2391 1083 c17 -4 47 -22 66 -42
l34 -35 3 -405 c3 -398 2 -406 -19 -443 -42 -75 16 -71 -982 -71 l-894 0 0
499 0 500 46 3 c85 6 1714 0 1746 -6z"/>
<path d="M25757 26763 c-1 0 -24 -3 -52 -6 -147 -17 -268 -79 -379 -197 -96
-102 -146 -211 -164 -355 -9 -78 -7 -2143 3 -2215 33 -251 245 -472 500 -521
39 -8 1307 -14 2073 -9 l92 0 0 280 0 280 -983 0 c-939 0 -984 1 -1017 19 -19
10 -44 33 -55 52 -18 31 -19 54 -20 369 0 184 1 342 3 351 3 15 81 16 865 17
474 0 876 1 892 1 l30 1 0 279 1 279 -26 4 c-14 2 -415 3 -892 2 -599 0 -868
3 -871 10 -2 6 -3 164 -2 352 1 320 2 342 21 374 11 19 34 43 51 53 30 17 78
18 1017 18 l986 0 0 280 c0 216 -3 279 -12 280 -22 2 -2060 4 -2061 2z"/>
<path d="M29882 26760 c-4 -3 -7 -746 -7 -1652 0 -1641 0 -1648 20 -1648 26
-1 511 -1 551 0 l31 0 -1 1652 -1 1651 -293 1 c-162 1 -297 -1 -300 -4z"/>
<path d="M31143 26753 c-3 -6 -5 -750 -6 -1652 -2 -1453 0 -1641 13 -1641 18
-1 425 -1 521 0 l67 0 0 1186 c0 652 2 1187 5 1190 3 3 105 -113 228 -258 123
-145 234 -274 246 -288 11 -14 130 -153 264 -310 133 -157 264 -310 290 -340
26 -30 91 -107 144 -170 54 -63 122 -143 153 -178 30 -35 64 -75 76 -90 11
-15 23 -29 26 -32 3 -3 44 -50 90 -105 47 -55 128 -150 180 -210 52 -61 115
-135 140 -165 48 -57 177 -209 190 -223 8 -9 588 -12 597 -3 4 4 7 3043 4
3261 l-1 40 -282 -2 c-156 -1 -290 -2 -298 -2 -13 -1 -15 -141 -14 -1198 1
-1185 1 -1196 -19 -1172 -33 41 -217 258 -321 379 -12 14 -50 59 -85 100 -35
41 -85 100 -111 130 -70 81 -508 596 -693 815 -89 105 -166 195 -172 201 -5 6
-31 35 -56 65 -154 181 -235 275 -244 285 -5 6 -28 33 -50 60 -22 26 -79 93
-126 149 -47 55 -94 111 -105 123 -59 72 -22 65 -350 66 -219 1 -298 -2 -301
-11z"/>
<path d="M36568 26759 c-7 -5 -11 -532 -12 -1653 l-1 -1646 80 -1 c98 0 308 0
431 0 l92 1 0 568 c0 312 1 576 1 587 1 20 8 20 958 19 727 0 974 3 1025 12
217 41 400 203 480 425 22 63 22 70 25 604 3 514 2 544 -17 618 -65 246 -284
438 -531 463 -90 9 -2517 12 -2531 3z m2404 -573 c20 -9 47 -30 60 -48 l23
-33 0 -405 c0 -403 0 -405 -22 -436 -48 -67 3 -64 -982 -64 -706 0 -891 3
-892 13 0 6 -1 230 -1 497 l-1 485 22 5 c12 3 412 4 889 3 756 -1 872 -4 904
-17z"/>
<path d="M40747 26764 c-1 -1 -27 -4 -57 -7 -70 -8 -149 -31 -207 -63 -111
-58 -222 -169 -267 -264 -11 -25 -24 -47 -27 -50 -4 -3 -16 -41 -27 -85 -19
-78 -20 -111 -18 -1205 l2 -1125 22 -65 c77 -230 273 -398 507 -435 49 -8
2128 -8 2170 0 131 25 236 78 333 170 103 97 170 222 189 350 3 28 7 543 7
1145 0 1196 2 1140 -58 1272 -28 62 -91 146 -144 192 -20 17 -40 36 -47 42 -6
6 -44 29 -85 52 -146 78 -86 75 -1253 76 -571 1 -1039 0 -1040 0z m1929 -568
c16 -4 46 -22 65 -42 l34 -35 3 -996 2 -996 -21 -36 c-18 -31 -41 -52 -59 -57
-3 0 -12 -4 -20 -8 -8 -3 -430 -5 -937 -4 l-921 3 -27 25 c-57 52 -55 8 -55
1065 1 1056 -2 1002 54 1054 19 18 41 26 88 30 79 8 1752 4 1794 -3z"/>
<path d="M44012 25113 l0 -1653 27 0 c147 -3 564 0 568 4 3 3 6 310 7 683 l1
678 308 2 c169 1 307 -2 307 -5 0 -4 21 -30 48 -57 26 -28 88 -95 137 -149 50
-55 106 -116 125 -137 19 -20 64 -70 100 -110 36 -40 76 -84 90 -99 113 -122
218 -236 230 -250 8 -10 53 -59 100 -110 47 -51 92 -101 100 -110 20 -23 180
-198 205 -225 11 -11 41 -43 66 -70 l45 -50 363 2 c200 1 365 3 366 5 2 2 -13
21 -33 43 -34 37 -244 265 -267 291 -25 28 -204 221 -234 253 -18 20 -51 56
-73 80 -21 25 -81 89 -131 144 -141 153 -301 327 -322 351 -5 7 -37 41 -70 76
-33 36 -103 112 -155 169 -52 57 -123 134 -157 170 -59 63 -61 67 -47 89 9 13
164 202 346 420 182 218 347 417 367 441 20 24 65 78 100 120 34 42 71 85 80
96 52 63 329 397 360 434 20 24 46 55 59 70 53 60 75 56 -329 55 l-369 0 -27
-34 c-51 -61 -285 -345 -307 -370 -11 -14 -43 -52 -71 -85 -27 -33 -52 -62
-55 -65 -3 -3 -24 -27 -45 -55 -42 -52 -62 -76 -93 -113 -11 -13 -35 -42 -54
-64 -18 -23 -50 -62 -72 -87 -21 -25 -45 -55 -55 -66 -9 -11 -93 -113 -187
-226 l-172 -205 -290 0 -290 0 0 645 c0 355 -1 664 -1 686 l-1 40 -299 0 -298
0 -1 -1652z"/>
<path d="M48017 26758 c-251 -28 -464 -213 -533 -463 -15 -54 -17 -168 -18
-1160 -2 -1152 -2 -1167 42 -1281 73 -193 279 -357 487 -389 29 -4 1906 -9
2115 -5 l26 0 -1 278 0 277 -990 5 c-765 4 -995 8 -1012 17 -12 7 -32 28 -45
45 l-23 33 0 355 0 355 888 1 c488 1 891 4 894 8 5 4 8 494 4 551 -1 7 -304
10 -891 9 -797 0 -890 2 -894 15 -3 14 -1 647 3 693 2 24 50 78 80 90 16 6
387 9 1006 10 l981 0 -1 281 0 281 -1025 0 c-564 1 -1055 -2 -1093 -6z"/>
<path d="M50672 26755 c-4 -5 -7 -749 -7 -1652 l0 -1643 65 -1 c79 0 288 0
430 0 l105 1 -1 577 c0 318 1 583 3 588 2 7 191 10 543 9 l540 0 176 -210 c97
-115 193 -229 213 -253 20 -25 50 -61 67 -80 17 -20 78 -92 135 -161 58 -69
114 -136 126 -150 12 -14 74 -88 138 -165 65 -77 121 -144 125 -148 7 -8 183
-10 608 -8 l104 1 -104 123 c-80 93 -476 564 -616 732 -67 80 -178 211 -182
215 -12 11 -80 97 -80 101 0 2 62 4 138 5 75 0 153 3 172 6 125 20 240 78 331
168 82 80 130 155 166 257 l28 78 0 535 c0 294 -3 553 -7 575 -25 146 -138
313 -270 402 -60 40 -152 79 -223 94 -77 16 -2713 20 -2723 4z m2556 -573 c21
-10 46 -34 57 -52 18 -32 19 -56 20 -414 0 -210 -3 -395 -7 -412 -10 -39 -34
-66 -75 -88 -29 -14 -120 -16 -995 -16 l-963 0 0 498 0 497 40 5 c22 3 456 4
963 3 886 -2 925 -3 960 -21z"/>
</g>
</svg>
